HIERARCHY
ROOT joint_Root
{
	OFFSET 0.0 0.0 0.0
	CHANNELS 6 Xposition Yposition Zposition Zrotation Xrotation Yrotation 
	JOINT Hips
	{
		OFFSET 4.5925 91.4895 -427.239
		CHANNELS 6 Xposition Yposition Zposition Zrotation Xrotation Yrotation 
		JOINT Spine
		{
			OFFSET 15.7357 0.0 0.0
			CHANNELS 6 Xposition Yposition Zposition Zrotation Xrotation Yrotation 
			JOINT Chest
			{
				OFFSET 8.98455 -0.406207 0.0
				CHANNELS 6 Xposition Yposition Zposition Zrotation Xrotation Yrotation 
				JOINT Neck
				{
					OFFSET 16.3773 0.0 0.0
					CHANNELS 6 Xposition Yposition Zposition Zrotation Xrotation Yrotation 
					JOINT Head
					{
						OFFSET 6.45672 0.0 0.0
						CHANNELS 6 Xposition Yposition Zposition Zrotation Xrotation Yrotation 
						End Site
						{
							OFFSET 0.0 0.0 0.0
						}
					}
				}
				JOINT Shoulder_L
				{
					OFFSET 12.9942 -0.242716 4.98039
					CHANNELS 6 Xposition Yposition Zposition Zrotation Xrotation Yrotation 
					JOINT UpperArm_L
					{
						OFFSET 5.34809 0.0 0.0
						CHANNELS 6 Xposition Yposition Zposition Zrotation Xrotation Yrotation 
						JOINT LowerArm_L
						{
							OFFSET 24.3286 1.87007e-05 0.0
							CHANNELS 6 Xposition Yposition Zposition Zrotation Xrotation Yrotation 
							JOINT Hand_L
							{
								OFFSET 22.2916 0.0 0.0
								CHANNELS 6 Xposition Yposition Zposition Zrotation Xrotation Yrotation 
								End Site
								{
									OFFSET 0.0 0.0 0.0
								}
							}
						}
					}
				}
				JOINT Shoulder_R
				{
					OFFSET 12.9945 -0.242716 -4.98039
					CHANNELS 6 Xposition Yposition Zposition Zrotation Xrotation Yrotation 
					JOINT UpperArm_R
					{
						OFFSET -5.34813 0.0 0.0
						CHANNELS 6 Xposition Yposition Zposition Zrotation Xrotation Yrotation 
						JOINT LowerArm_R
						{
							OFFSET -24.3289 0.000322201 0.0
							CHANNELS 6 Xposition Yposition Zposition Zrotation Xrotation Yrotation 
							JOINT Hand_R
							{
								OFFSET -22.2915 -0.000108084 0.0
								CHANNELS 6 Xposition Yposition Zposition Zrotation Xrotation Yrotation 
								End Site
								{
									OFFSET 0.0 0.0 0.0
								}
							}
						}
					}
				}
			}
		}
		JOINT UpperLeg_L
		{
			OFFSET -2.19248 -6.46944 0.0
			CHANNELS 6 Xposition Yposition Zposition Zrotation Xrotation Yrotation 
			JOINT LowerLeg_L
			{
				OFFSET 39.0811 0.0 -1.23785e-05
				CHANNELS 6 Xposition Yposition Zposition Zrotation Xrotation Yrotation 
				JOINT Foot_L
				{
					OFFSET 40.9854 0.0 -1.26872e-05
					CHANNELS 6 Xposition Yposition Zposition Zrotation Xrotation Yrotation 
					JOINT Toes_L
					{
						OFFSET 11.7543 0.0 0.0
						CHANNELS 6 Xposition Yposition Zposition Zrotation Xrotation Yrotation 
						End Site
						{
							OFFSET 0.0 0.0 0.0
						}
					}
				}
			}
		}
		JOINT UpperLeg_R
		{
			OFFSET -2.19251 6.46944 0.0
			CHANNELS 6 Xposition Yposition Zposition Zrotation Xrotation Yrotation 
			JOINT LowerLeg_R
			{
				OFFSET -39.0811 -0.00228153 -0.0401928
				CHANNELS 6 Xposition Yposition Zposition Zrotation Xrotation Yrotation 
				JOINT Foot_R
				{
					OFFSET -40.9854 0.0 0.0
					CHANNELS 6 Xposition Yposition Zposition Zrotation Xrotation Yrotation 
					JOINT Toes_R
					{
						OFFSET -11.7543 0.0 0.0
						CHANNELS 6 Xposition Yposition Zposition Zrotation Xrotation Yrotation 
						End Site
						{
							OFFSET 0.0 0.0 0.0
						}
					}
				}
			}
		}
	}
}
MOTION
Frames:	8
Frame Time:	0.0333333
0.000000 0.000000 0.000000 0.000000 0.000000 -0.000000 -0.480753 89.368800 0.925211 91.448800 -6.433810 10.336000 15.735700 0.000005 -0.000001 88.684500 82.388100 -82.503600 8.984550 -0.406207 -0.000000 7.503430 -0.360697 12.372800 16.377300 -0.000001 -0.000001 10.644200 -6.575910 4.458090 6.456720 -0.000001 -0.000000 1.193220 -8.871850 1.154880 12.994200 -0.242716 4.980390 -87.839100 -4.841140 -65.910400 5.348090 -0.000007 -0.000001 -47.055900 -42.857900 -41.155300 24.328600 0.000019 0.000005 1.933030 4.669030 -22.521700 22.291600 -0.000001 0.000005 19.406600 4.748700 12.251900 12.994500 -0.242716 -4.980390 87.799500 8.172190 -74.874100 -5.348130 -0.000001 -0.000004 -57.566500 6.525480 -4.385280 -24.328900 0.000322 -0.000009 -6.192650 -10.460200 -30.859900 -22.291500 -0.000108 -0.000004 19.291900 5.442730 -4.381730 -2.192480 -6.469440 -0.000000 -176.513000 -13.844200 -1.479310 39.081100 -0.000007 -0.000012 -0.204508 0.279644 36.178900 40.985400 -0.000006 -0.000013 0.778463 5.075790 -74.216000 11.754300 -0.000000 0.000003 -0.000108 -0.001099 -16.619600 -2.192510 6.469440 -0.000001 173.570000 12.485200 177.270000 -39.081100 -0.002282 -0.040193 -0.290678 0.378641 37.824800 -40.985400 0.000008 0.000006 2.668990 8.643240 -75.001300 -11.754300 -0.000006 -0.000006 -0.000068 -0.001133 -16.619900
0.000000 0.000000 0.000000 0.000000 0.000000 -0.000000 -0.703807 89.261600 0.861596 91.458900 -5.482970 10.883500 15.735700 0.000005 -0.000001 92.332300 82.314200 -86.499600 8.984550 -0.406207 -0.000000 7.588400 0.615394 11.612600 16.377300 -0.000001 -0.000001 10.316000 -7.413230 3.941670 6.456720 -0.000001 -0.000000 1.348500 -9.968670 0.767459 12.994200 -0.242716 4.980390 -87.708000 -5.105350 -65.782900 5.348090 -0.000007 -0.000001 -56.535700 -42.630200 -51.630900 24.328600 0.000019 0.000005 0.887852 2.010030 -23.897400 22.291600 -0.000001 0.000005 22.309900 4.701090 13.138500 12.994500 -0.242716 -4.980390 87.944300 7.733130 -75.064100 -5.348130 -0.000001 -0.000004 -59.236400 6.117120 -1.076510 -24.328900 0.000322 -0.000009 -7.603670 -12.362600 -31.941900 -22.291500 -0.000108 -0.000004 20.515900 5.456330 -4.865300 -2.192480 -6.469440 -0.000000 -176.438000 -12.852500 -1.328780 39.081100 -0.000007 -0.000012 -0.211676 0.284099 36.689400 40.985400 -0.000006 -0.000013 0.658964 5.121500 -74.344000 11.754300 -0.000000 0.000003 -0.000128 -0.001267 -16.625900 -2.192510 6.469440 -0.000001 173.505000 13.082200 177.755000 -39.081100 -0.002282 -0.040193 -0.279709 0.358415 38.293800 -40.985400 0.000008 0.000006 2.976240 8.194070 -75.368900 -11.754300 -0.000006 -0.000006 -0.000014 -0.000243 -16.583700
0.000000 0.000000 0.000000 0.000000 0.000000 -0.000000 -1.197050 89.248400 0.766353 91.280500 -3.666100 11.206200 15.735700 0.000005 -0.000001 94.908900 82.339100 -89.517200 8.984550 -0.406207 -0.000000 7.462920 1.292890 10.688000 16.377300 -0.000001 -0.000001 10.409400 -7.274290 2.081140 6.456720 -0.000001 -0.000000 1.451720 -10.092200 0.158572 12.994200 -0.242716 4.980390 -87.335600 -5.867460 -65.524200 5.348090 -0.000007 -0.000001 -58.182100 -40.435200 -62.062800 24.328600 0.000019 0.000005 -0.848408 -1.520080 -29.134300 22.291600 -0.000001 0.000005 22.147700 4.788010 11.541600 12.994500 -0.242716 -4.980390 88.130300 7.211650 -75.424200 -5.348130 -0.000001 -0.000004 -60.491300 7.959770 1.099780 -24.328900 0.000322 -0.000009 -7.920340 -14.385700 -29.243000 -22.291500 -0.000108 -0.000004 19.607400 5.466560 -5.235550 -2.192480 -6.469440 -0.000000 -176.064000 -11.524600 -1.372160 39.081100 -0.000007 -0.000012 -0.212434 0.282946 36.899300 40.985400 -0.000006 -0.000013 0.530142 5.799660 -74.188600 11.754300 -0.000000 0.000003 -0.000117 -0.001173 -16.622400 -2.192510 6.469440 -0.000001 173.764000 14.511900 178.401000 -39.081100 -0.002282 -0.040193 -0.221828 0.285014 38.302700 -40.985400 0.000008 0.000006 3.846400 7.418880 -75.670900 -11.754300 -0.000006 -0.000006 -0.045205 -0.054023 -16.540100
0.000000 0.000000 0.000000 0.000000 0.000000 -0.000000 -1.781290 89.340900 0.662696 90.777800 -1.735460 11.173100 15.735700 0.000005 -0.000001 96.534600 82.469700 -91.577400 8.984550 -0.406207 -0.000000 7.145440 1.681780 9.799020 16.377300 -0.000001 -0.000001 10.811900 -6.841160 0.025878 6.456720 -0.000001 -0.000000 1.679870 -9.891260 -0.501271 12.994200 -0.242716 4.980390 -86.637000 -7.314600 -65.225400 5.348090 -0.000007 -0.000001 -54.516600 -40.247300 -70.870900 24.328600 0.000019 0.000005 -2.499730 -3.087760 -38.981600 22.291600 -0.000001 0.000005 23.438700 4.910780 9.169690 12.994500 -0.242716 -4.980390 88.298300 6.756780 -75.828700 -5.348130 -0.000001 -0.000004 -61.428400 10.501200 2.458980 -24.328900 0.000322 -0.000009 -5.136770 -11.341300 -24.547300 -22.291500 -0.000108 -0.000004 15.776000 5.418250 -3.506630 -2.192480 -6.469440 -0.000000 -175.381000 -10.094300 -1.678840 39.081100 -0.000007 -0.000012 -0.217765 0.291221 36.788300 40.985400 -0.000006 -0.000013 0.331264 6.582000 -73.824600 11.754300 -0.000000 0.000003 -0.000113 -0.001138 -16.621100 -2.192510 6.469440 -0.000001 174.410000 16.439200 179.013000 -39.081100 -0.002282 -0.040193 -0.144250 0.191034 37.678800 -40.985400 0.000008 0.000006 4.898740 6.846750 -75.682100 -11.754300 -0.000006 -0.000006 -0.000116 -0.001928 -16.652100
0.000000 0.000000 0.000000 0.000000 0.000000 -0.000000 -2.325890 89.529800 0.553099 90.062900 -0.391634 10.580600 15.735700 0.000005 -0.000001 97.568500 82.655500 -92.952500 8.984550 -0.406207 -0.000000 6.738300 1.887690 9.111030 16.377300 -0.000001 -0.000001 11.068000 -6.046300 -2.174420 6.456720 -0.000001 -0.000000 1.777870 -9.453930 -1.143010 12.994200 -0.242716 4.980390 -85.619400 -9.054710 -64.046900 5.348090 -0.000007 -0.000001 -52.672200 -43.723000 -80.824700 24.328600 0.000019 0.000005 -2.153870 -1.694090 -51.949700 22.291600 -0.000001 0.000005 26.057700 5.004040 7.245050 12.994500 -0.242716 -4.980390 88.420100 6.498950 -76.304600 -5.348130 -0.000001 -0.000004 -61.979900 11.865200 3.377880 -24.328900 0.000322 -0.000009 -2.079470 -5.479090 -20.791800 -22.291500 -0.000108 -0.000004 11.541800 5.347800 -1.288200 -2.192480 -6.469440 -0.000000 -174.632000 -8.779210 -2.364850 39.081100 -0.000007 -0.000012 -0.216815 0.294898 36.324500 40.985400 -0.000006 -0.000013 -0.036892 6.850770 -73.316500 11.754300 -0.000000 0.000003 -0.000109 -0.001106 -16.619900 -2.192510 6.469440 -0.000001 175.474000 18.083100 179.157000 -39.081100 -0.002282 -0.040193 -0.085195 0.119575 36.500500 -40.985400 0.000008 0.000006 5.748230 6.623900 -75.313500 -11.754300 -0.000006 -0.000006 -0.000134 -0.002231 -16.664400
0.000000 0.000000 0.000000 0.000000 0.000000 -0.000000 -2.678690 89.741700 0.379925 89.528200 -0.112848 9.503920 15.735700 0.000005 -0.000001 98.707400 82.852600 -94.447100 8.984550 -0.406207 -0.000000 6.303270 2.103920 8.395680 16.377300 -0.000001 -0.000001 11.308400 -4.535270 -4.514030 6.456720 -0.000001 -0.000000 1.684260 -8.329080 -1.246420 12.994200 -0.242716 4.980390 -84.203500 -10.902500 -61.780500 5.348090 -0.000007 -0.000001 -55.555600 -49.288500 -93.564800 24.328600 0.000019 0.000005 2.521640 1.256800 -63.373700 22.291600 -0.000001 0.000005 30.016600 5.126440 4.542750 12.994500 -0.242716 -4.980390 88.479600 6.427860 -76.662200 -5.348130 -0.000001 -0.000004 -62.261100 10.962000 3.833540 -24.328900 0.000322 -0.000009 -0.505493 -1.499950 -18.573800 -22.291500 -0.000108 -0.000004 9.874240 5.290650 0.332276 -2.192480 -6.469440 -0.000000 -174.218000 -7.951810 -3.373430 39.081100 -0.000007 -0.000012 -0.219656 0.305958 35.676100 40.985400 -0.000006 -0.000013 -0.479698 6.455230 -72.765200 11.754300 -0.000000 0.000003 -0.000101 -0.001037 -16.617300 -2.192510 6.469440 -0.000001 176.555000 18.970000 178.506000 -39.081100 -0.002282 -0.040193 -0.051145 0.076681 35.370400 -40.985400 0.000008 0.000006 6.440370 6.794230 -74.786400 -11.754300 -0.000006 -0.000006 -0.000287 -0.004691 -16.764400
0.000000 0.000000 0.000000 0.000000 0.000000 -0.000000 -2.799910 89.926500 0.177269 89.212000 -0.736864 8.537600 15.735700 0.000005 -0.000001 99.600300 82.988700 -95.563300 8.984550 -0.406207 -0.000000 5.996510 2.270400 7.946550 16.377300 -0.000001 -0.000001 11.757200 -2.474580 -7.147380 6.456720 -0.000001 -0.000000 1.692730 -6.953980 -0.841300 12.994200 -0.242716 4.980390 -82.296600 -13.021600 -59.024500 5.348090 -0.000007 -0.000001 -63.362100 -53.755700 -107.214000 24.328600 0.000019 0.000005 10.354500 3.778270 -70.149200 22.291600 -0.000001 0.000005 35.012100 5.243200 1.639750 12.994500 -0.242716 -4.980390 88.632500 6.075840 -77.291200 -5.348130 -0.000001 -0.000004 -62.501800 8.128570 4.228620 -24.328900 0.000322 -0.000009 -0.400012 -1.251360 -17.687400 -22.291500 -0.000108 -0.000004 12.212500 5.273130 0.818196 -2.192480 -6.469440 -0.000000 -174.094000 -7.661310 -4.122620 39.081100 -0.000007 -0.000012 -0.219789 0.313472 35.036400 40.985400 -0.000006 -0.000013 -0.881465 5.572230 -72.320200 11.754300 -0.000000 0.000003 -0.000104 -0.001065 -16.618400 -2.192510 6.469440 -0.000001 177.278000 19.213300 177.720000 -39.081100 -0.002282 -0.040193 -0.037935 0.060003 34.492300 -40.985400 0.000008 0.000006 6.798370 7.516100 -74.245700 -11.754300 -0.000006 -0.000006 -0.000334 -0.005442 -16.794800
0.000000 0.000000 0.000000 0.000000 0.000000 -0.000000 -2.635910 90.094700 -0.039413 89.249400 -2.022120 7.667110 15.735700 0.000005 -0.000001 101.249000 83.115800 -97.286300 8.984550 -0.406207 -0.000000 5.664440 2.606960 7.788360 16.377300 -0.000001 -0.000001 12.129800 -0.950786 -9.023260 6.456720 -0.000001 -0.000000 1.718520 -5.979710 -0.875253 12.994200 -0.242716 4.980390 -80.991500 -14.298100 -57.302500 5.348090 -0.000007 -0.000001 -69.264500 -56.076200 -115.432000 24.328600 0.000019 0.000005 13.272400 4.872650 -70.193200 22.291600 -0.000001 0.000005 39.706000 5.261440 1.129480 12.994500 -0.242716 -4.980390 88.819700 5.490080 -77.847000 -5.348130 -0.000001 -0.000004 -62.749100 5.101030 4.587100 -24.328900 0.000322 -0.000009 -1.074050 -3.310730 -17.964100 -22.291500 -0.000108 -0.000004 16.902000 5.311480 -0.229127 -2.192480 -6.469440 -0.000000 -174.461000 -7.851130 -4.616410 39.081100 -0.000007 -0.000012 -0.219210 0.321216 34.311600 40.985400 -0.000006 -0.000013 -1.142820 4.380300 -71.927000 11.754300 -0.000000 0.000003 -0.000105 -0.001074 -16.618700 -2.192510 6.469440 -0.000001 177.552000 18.764400 176.741000 -39.081100 -0.002282 -0.040193 -0.013863 0.025470 33.964300 -40.985400 0.000008 0.000006 7.160390 8.293160 -73.782700 -11.754300 -0.000006 -0.000006 -0.000287 -0.004703 -16.764800
